<?xml version="1.0" encoding="UTF-8" standalone="no"?>
<!DOCTYPE svg PUBLIC "-//W3C//DTD SVG 1.1//EN" "http://www.w3.org/Graphics/SVG/1.1/DTD/svg11.dtd">
<svg version="1.1" xmlns="http://www.w3.org/2000/svg" xmlns:xlink="http://www.w3.org/1999/xlink" preserveAspectRatio="xMidYMid meet" viewBox="11.516000000000005 11.518999999999991 234.96799999999996 234.96300000000002" width="1024.02" height="1024"><defs><path d="M242.89 139.82C242.43 144.29 241.72 148.7 240.76 153C231.14 196.64 196.82 231.01 153.21 240.72C150.69 241.28 148.15 241.75 145.58 242.15C145.58 242.15 145.56 242.15 145.56 242.15C139.83 243.03 133.97 243.48 128 243.48C64.22 243.48 12.52 191.77 12.52 128C12.52 64.23 64.23 12.52 128 12.52C191.77 12.52 243.48 64.23 243.48 128C243.48 132 243.28 135.93 242.89 139.82Z" id="bi662Qkez"></path><path d="M153.21 240.72C148.38 235.89 124.24 211.77 80.79 168.36L83.18 148.26L82.54 110.78L82.67 93.31L88.07 88.31L106.85 88.61L123.56 79.38L159.53 89.89L176.32 88.55L240.76 153C211.46 205 182.28 234.24 153.21 240.72Z" id="bKdMye7e3"></path><path d="M130.72 95L132.05 95.13L133.37 95.32L134.67 95.56L135.96 95.85L137.22 96.19L138.47 96.57L139.69 97.01L140.89 97.49L142.07 98.01L143.22 98.58L144.35 99.19L145.45 99.85L146.52 100.54L147.56 101.27L148.57 102.05L149.55 102.86L150.5 103.7L151.42 104.58L152.3 105.5L153.15 106.45L153.96 107.43L154.73 108.44L155.46 109.49L156.16 110.56L156.81 111.66L157.42 112.78L157.99 113.93L158.51 115.11L158.99 116.31L159.43 117.53L159.82 118.78L160.15 120.04L160.44 121.33L160.68 122.63L160.87 123.95L161.01 125.28L161.09 126.63L161.12 128L161.09 129.37L161.01 130.72L160.87 132.05L160.68 133.37L160.44 134.67L160.15 135.96L159.82 137.22L159.43 138.47L158.99 139.69L158.51 140.89L157.99 142.07L157.42 143.22L156.81 144.34L156.16 145.44L155.46 146.52L154.73 147.56L153.96 148.57L153.15 149.55L152.3 150.5L151.42 151.42L150.5 152.3L149.55 153.14L148.57 153.95L147.56 154.73L146.52 155.46L145.45 156.15L144.35 156.81L143.22 157.42L142.07 157.99L140.89 158.51L139.69 158.99L138.47 159.43L137.22 159.81L135.96 160.15L134.67 160.44L133.37 160.68L132.05 160.87L130.72 161.01L129.37 161.09L128 161.12L126.63 161.09L125.28 161.01L123.95 160.87L122.63 160.68L121.33 160.44L120.04 160.15L118.78 159.81L117.53 159.43L116.31 158.99L115.11 158.51L113.93 157.99L112.78 157.42L111.65 156.81L110.55 156.15L109.48 155.46L108.44 154.73L107.43 153.95L106.45 153.14L105.5 152.3L104.58 151.42L103.7 150.5L102.85 149.55L102.04 148.57L101.27 147.56L100.54 146.52L99.84 145.44L99.19 144.34L98.58 143.22L98.01 142.07L97.49 140.89L97.01 139.69L96.57 138.47L96.18 137.22L95.85 135.96L95.56 134.67L95.32 133.37L95.13 132.05L94.99 130.72L94.91 129.37L94.88 128L94.91 126.63L94.99 125.28L95.13 123.95L95.32 122.63L95.56 121.33L95.85 120.04L96.18 118.78L96.57 117.53L97.01 116.31L97.49 115.11L98.01 113.93L98.58 112.78L99.19 111.66L99.84 110.56L100.54 109.49L101.27 108.44L102.04 107.43L102.85 106.45L103.7 105.5L104.58 104.58L105.5 103.7L106.45 102.86L107.43 102.05L108.44 101.27L109.48 100.54L110.55 99.85L111.65 99.19L112.78 98.58L113.93 98.01L115.11 97.49L116.31 97.01L117.53 96.57L118.78 96.19L120.04 95.85L121.33 95.56L122.63 95.32L123.95 95.13L125.28 95L126.63 94.91L128 94.89L129.37 94.91L130.72 95ZM125.23 120.55L123.99 121.14L122.88 121.92L121.92 122.88L121.14 123.99L120.55 125.23L120.18 126.57L120.06 128L120.18 129.43L120.55 130.77L121.14 132.01L121.92 133.12L122.88 134.08L123.99 134.86L125.23 135.45L126.57 135.82L128 135.94L129.43 135.82L130.77 135.45L132.01 134.86L133.12 134.08L134.08 133.12L134.86 132.01L135.45 130.77L135.82 129.43L135.95 128L135.82 126.57L135.45 125.23L134.86 123.99L134.08 122.88L133.12 121.92L132.01 121.14L130.77 120.55L129.43 120.18L128 120.06L126.57 120.18L125.23 120.55Z" id="aFPCt75to"></path><path d="M129.98 75.11L130.97 75.16L131.95 75.22L132.92 75.3L133.89 75.4L134.86 75.52L135.82 75.65L136.77 75.8L137.72 75.97L138.66 76.15L139.6 76.35L140.53 76.57L141.45 76.81L142.37 77.06L143.28 77.32L144.18 77.6L145.08 77.9L145.97 78.21L146.85 78.54L147.73 78.88L148.59 79.24L149.45 79.61L150.3 80L151.15 80.4L151.98 80.82L152.81 81.25L153.62 81.7L154.43 82.15L155.23 82.63L156.03 83.11L156.81 83.61L157.58 84.12L158.34 84.65L159.1 85.19L159.84 85.74L160.57 86.3L161.3 86.88L162.01 87.47L162.71 88.07L162.84 87.95L162.97 87.83L163.1 87.71L163.24 87.59L163.38 87.48L163.52 87.37L163.66 87.26L163.8 87.16L163.95 87.06L164.1 86.96L164.25 86.86L164.4 86.77L164.55 86.68L164.71 86.59L164.86 86.5L165.02 86.42L165.18 86.34L165.35 86.27L165.51 86.19L165.68 86.12L165.84 86.05L166.01 85.99L166.18 85.93L166.35 85.87L166.53 85.82L166.7 85.77L166.88 85.72L167.06 85.67L167.24 85.63L167.42 85.59L167.6 85.56L167.78 85.53L167.96 85.5L168.15 85.48L168.33 85.46L168.52 85.44L168.71 85.43L168.9 85.42L169.09 85.41L169.28 85.41L169.67 85.42L170.06 85.44L170.44 85.48L170.82 85.53L171.19 85.6L171.56 85.68L171.92 85.78L172.28 85.89L172.63 86.02L172.97 86.15L173.31 86.3L173.64 86.47L173.96 86.64L174.27 86.83L174.58 87.03L174.88 87.24L175.17 87.46L175.45 87.69L175.72 87.93L175.98 88.18L176.24 88.45L176.48 88.72L176.71 89L176.93 89.29L177.14 89.59L177.34 89.89L177.53 90.21L177.7 90.53L177.86 90.86L178.01 91.2L178.15 91.54L178.28 91.89L178.39 92.25L178.48 92.61L178.57 92.98L178.63 93.35L178.69 93.73L178.73 94.11L178.75 94.5L178.76 94.89L178.75 95.13L178.75 95.38L178.73 95.62L178.71 95.86L178.68 96.1L178.65 96.34L178.61 96.57L178.56 96.81L178.51 97.04L178.46 97.27L178.39 97.49L178.33 97.72L178.25 97.94L178.18 98.16L178.09 98.38L178 98.59L177.91 98.8L177.81 99.01L177.71 99.22L177.6 99.42L177.49 99.62L177.37 99.82L177.25 100.02L177.12 100.21L176.99 100.4L176.85 100.58L176.71 100.76L176.57 100.94L176.42 101.11L176.27 101.28L176.11 101.45L175.95 101.61L175.79 101.77L175.62 101.93L175.45 102.08L175.27 102.22L175.09 102.37L174.91 102.5L174.72 102.64L174.54 102.77L174.84 103.33L175.13 103.9L175.42 104.47L175.7 105.05L175.98 105.63L176.25 106.22L176.51 106.8L176.76 107.4L177.01 107.99L177.25 108.59L177.49 109.19L177.71 109.8L177.93 110.41L178.14 111.02L178.35 111.64L178.54 112.26L178.73 112.88L178.92 113.51L179.09 114.14L179.26 114.77L179.42 115.41L179.57 116.05L179.71 116.69L179.85 117.33L179.98 117.98L180.1 118.63L180.21 119.28L180.31 119.94L180.41 120.6L180.5 121.26L180.58 121.92L180.65 122.59L180.71 123.26L180.77 123.93L180.82 124.6L180.86 125.28L180.89 125.95L180.91 126.63L180.92 127.32L180.92 128L180.92 128.68L180.91 129.37L180.89 130.05L180.86 130.72L180.82 131.4L180.77 132.07L180.71 132.74L180.65 133.41L180.58 134.08L180.5 134.74L180.41 135.4L180.31 136.06L180.21 136.72L180.1 137.37L179.98 138.02L179.85 138.67L179.71 139.31L179.57 139.95L179.42 140.59L179.26 141.23L179.09 141.86L178.92 142.49L178.73 143.12L178.54 143.74L178.35 144.36L178.14 144.98L177.93 145.59L177.71 146.2L177.49 146.81L177.25 147.41L177.01 148.01L176.76 148.6L176.51 149.2L176.25 149.78L175.98 150.37L175.7 150.95L175.42 151.53L175.13 152.1L174.84 152.67L174.54 153.23L174.72 153.36L174.91 153.5L175.09 153.63L175.27 153.78L175.45 153.92L175.62 154.07L175.79 154.23L175.95 154.39L176.11 154.55L176.27 154.72L176.42 154.89L176.57 155.06L176.71 155.24L176.85 155.42L176.99 155.61L177.12 155.79L177.25 155.98L177.37 156.18L177.49 156.38L177.6 156.58L177.71 156.78L177.81 156.99L177.91 157.2L178 157.41L178.09 157.62L178.18 157.84L178.25 158.06L178.33 158.28L178.39 158.51L178.46 158.74L178.51 158.97L178.56 159.2L178.61 159.43L178.65 159.67L178.68 159.9L178.71 160.14L178.73 160.38L178.75 160.63L178.75 160.87L178.76 161.12L178.75 161.51L178.73 161.89L178.69 162.28L178.63 162.65L178.57 163.03L178.48 163.39L178.39 163.76L178.28 164.11L178.15 164.46L178.01 164.81L177.86 165.14L177.7 165.47L177.53 165.79L177.34 166.11L177.14 166.42L176.93 166.71L176.71 167L176.48 167.28L176.24 167.56L175.98 167.82L175.72 168.07L175.45 168.31L175.17 168.54L174.88 168.77L174.58 168.98L174.27 169.17L173.96 169.36L173.64 169.54L173.31 169.7L172.97 169.85L172.63 169.99L172.28 170.11L171.92 170.22L171.56 170.32L171.19 170.4L170.82 170.47L170.44 170.52L170.06 170.56L169.67 170.59L169.28 170.59L169.09 170.59L168.9 170.59L168.71 170.58L168.52 170.56L168.34 170.55L168.15 170.53L167.96 170.5L167.78 170.48L167.6 170.44L167.42 170.41L167.24 170.37L167.06 170.33L166.88 170.29L166.7 170.24L166.53 170.19L166.35 170.13L166.18 170.07L166.01 170.01L165.84 169.95L165.68 169.88L165.51 169.81L165.35 169.74L165.18 169.66L165.02 169.58L164.86 169.5L164.71 169.41L164.55 169.32L164.4 169.23L164.25 169.14L164.1 169.04L163.95 168.94L163.8 168.84L163.66 168.74L163.52 168.63L163.38 168.52L163.24 168.41L163.1 168.29L162.97 168.18L162.84 168.06L162.71 167.94L162.01 168.54L161.3 169.12L160.57 169.7L159.84 170.26L159.1 170.81L158.34 171.35L157.58 171.88L156.81 172.39L156.03 172.89L155.23 173.38L154.43 173.85L153.62 174.31L152.81 174.75L151.98 175.18L151.15 175.6L150.3 176L149.45 176.39L148.59 176.76L147.73 177.12L146.85 177.46L145.97 177.79L145.08 178.1L144.18 178.4L143.28 178.68L142.37 178.95L141.45 179.2L140.53 179.43L139.6 179.65L138.66 179.85L137.72 180.03L136.77 180.2L135.82 180.35L134.86 180.48L133.89 180.6L132.92 180.7L131.95 180.78L130.97 180.84L129.98 180.89L128.99 180.92L128 180.93L127.01 180.92L126.02 180.89L125.04 180.84L124.07 180.78L123.1 180.7L122.13 180.6L121.17 180.49L120.21 180.36L119.26 180.21L118.32 180.04L117.38 179.86L116.45 179.66L115.52 179.44L114.6 179.21L113.69 178.96L112.78 178.7L111.88 178.42L110.99 178.13L110.1 177.82L109.22 177.49L108.35 177.15L107.49 176.8L106.63 176.43L105.78 176.04L104.94 175.64L104.11 175.23L103.29 174.8L102.47 174.36L101.67 173.91L100.87 173.44L100.08 172.96L99.3 172.46L98.53 171.95L97.77 171.43L97.02 170.9L96.28 170.35L95.54 169.79L94.82 169.22L94.11 168.64L93.41 168.04L93.28 168.16L93.15 168.27L93.02 168.39L92.89 168.5L92.75 168.6L92.61 168.71L92.47 168.81L92.33 168.91L92.18 169.01L92.04 169.11L91.89 169.2L91.74 169.29L91.59 169.38L91.44 169.46L91.28 169.54L91.13 169.62L90.97 169.7L90.81 169.77L90.65 169.84L90.48 169.91L90.32 169.97L90.15 170.04L89.99 170.09L89.82 170.15L89.65 170.2L89.48 170.25L89.3 170.3L89.13 170.34L88.95 170.38L88.78 170.42L88.6 170.45L88.42 170.48L88.24 170.51L88.06 170.53L87.88 170.55L87.7 170.57L87.51 170.58L87.33 170.59L87.14 170.59L86.95 170.59L86.56 170.59L86.18 170.56L85.79 170.52L85.42 170.47L85.04 170.4L84.68 170.32L84.31 170.22L83.96 170.11L83.61 169.99L83.26 169.85L82.93 169.7L82.6 169.54L82.28 169.36L81.96 169.17L81.65 168.98L81.36 168.76L81.07 168.54L80.79 168.31L80.51 168.07L80.25 167.82L80 167.56L79.76 167.28L79.53 167L79.3 166.71L79.09 166.42L78.9 166.11L78.71 165.79L78.53 165.47L78.37 165.14L78.22 164.81L78.08 164.46L77.96 164.11L77.85 163.76L77.75 163.39L77.67 163.03L77.6 162.65L77.55 162.28L77.51 161.89L77.48 161.51L77.48 161.12L77.48 160.88L77.49 160.64L77.5 160.4L77.52 160.17L77.55 159.93L77.58 159.7L77.62 159.47L77.66 159.24L77.71 159.01L77.77 158.79L77.82 158.57L77.89 158.35L77.96 158.13L78.03 157.91L78.11 157.7L78.2 157.49L78.29 157.28L78.38 157.08L78.48 156.87L78.59 156.67L78.69 156.48L78.81 156.28L78.92 156.09L79.05 155.9L79.17 155.72L79.3 155.53L79.44 155.35L79.58 155.18L79.72 155.01L79.87 154.84L80.02 154.67L80.17 154.51L80.33 154.35L80.49 154.2L80.65 154.05L80.82 153.9L81 153.76L81.17 153.62L81.35 153.48L81.53 153.35L81.23 152.79L80.93 152.22L80.64 151.64L80.35 151.06L80.07 150.48L79.8 149.89L79.54 149.3L79.28 148.71L79.03 148.11L78.79 147.51L78.55 146.9L78.32 146.29L78.1 145.68L77.89 145.06L77.68 144.45L77.48 143.82L77.29 143.2L77.11 142.57L76.93 141.93L76.76 141.3L76.6 140.66L76.45 140.02L76.3 139.37L76.16 138.73L76.03 138.07L75.91 137.42L75.8 136.76L75.69 136.11L75.6 135.44L75.51 134.78L75.43 134.11L75.35 133.44L75.29 132.77L75.23 132.1L75.18 131.42L75.15 130.74L75.12 130.06L75.09 129.37L75.08 128.69L75.08 128L75.08 127.31L75.09 126.63L75.12 125.94L75.15 125.26L75.18 124.58L75.23 123.91L75.29 123.23L75.35 122.56L75.43 121.89L75.51 121.22L75.6 120.56L75.69 119.9L75.8 119.24L75.91 118.58L76.03 117.93L76.16 117.28L76.3 116.63L76.45 115.98L76.6 115.34L76.76 114.7L76.93 114.07L77.11 113.43L77.29 112.81L77.48 112.18L77.68 111.56L77.89 110.94L78.1 110.32L78.32 109.71L78.55 109.1L78.79 108.49L79.03 107.89L79.28 107.29L79.54 106.7L79.8 106.11L80.07 105.52L80.35 104.94L80.64 104.36L80.93 103.79L81.23 103.21L81.53 102.65L81.35 102.52L81.17 102.38L81 102.24L80.82 102.1L80.65 101.95L80.49 101.8L80.33 101.65L80.17 101.49L80.02 101.33L79.86 101.16L79.72 101L79.58 100.82L79.44 100.65L79.3 100.47L79.17 100.29L79.05 100.1L78.92 99.91L78.81 99.72L78.69 99.53L78.59 99.33L78.48 99.13L78.38 98.93L78.29 98.72L78.2 98.51L78.11 98.3L78.03 98.09L77.96 97.87L77.89 97.66L77.82 97.43L77.77 97.21L77.71 96.99L77.66 96.76L77.62 96.53L77.58 96.3L77.55 96.07L77.52 95.84L77.5 95.6L77.49 95.36L77.48 95.13L77.48 94.89L77.48 94.5L77.51 94.11L77.55 93.73L77.6 93.35L77.67 92.98L77.75 92.61L77.85 92.25L77.96 91.89L78.08 91.54L78.22 91.2L78.37 90.86L78.53 90.53L78.71 90.21L78.9 89.89L79.1 89.59L79.31 89.29L79.53 89L79.76 88.72L80 88.45L80.25 88.18L80.51 87.93L80.79 87.69L81.07 87.46L81.36 87.24L81.66 87.03L81.96 86.83L82.28 86.64L82.6 86.47L82.93 86.3L83.26 86.15L83.61 86.02L83.96 85.89L84.31 85.78L84.68 85.68L85.04 85.6L85.42 85.53L85.79 85.48L86.18 85.44L86.56 85.42L86.95 85.41L87.14 85.41L87.33 85.42L87.51 85.43L87.7 85.44L87.88 85.45L88.06 85.47L88.24 85.5L88.42 85.52L88.6 85.55L88.78 85.59L88.95 85.62L89.13 85.66L89.3 85.7L89.48 85.75L89.65 85.8L89.82 85.85L89.99 85.91L90.15 85.97L90.32 86.03L90.48 86.09L90.65 86.16L90.81 86.23L90.97 86.3L91.13 86.38L91.28 86.46L91.44 86.54L91.59 86.63L91.74 86.71L91.89 86.8L92.04 86.9L92.18 86.99L92.33 87.09L92.47 87.19L92.61 87.29L92.75 87.4L92.89 87.51L93.02 87.62L93.15 87.73L93.28 87.84L93.41 87.96L94.11 87.37L94.82 86.78L95.54 86.21L96.28 85.65L97.02 85.1L97.77 84.57L98.53 84.05L99.3 83.54L100.08 83.04L100.87 82.56L101.67 82.09L102.47 81.64L103.29 81.2L104.11 80.77L104.94 80.36L105.78 79.96L106.63 79.57L107.49 79.21L108.35 78.85L109.22 78.51L110.1 78.18L110.99 77.87L111.88 77.58L112.78 77.3L113.69 77.04L114.6 76.79L115.52 76.56L116.45 76.34L117.38 76.14L118.32 75.96L119.26 75.8L120.21 75.65L121.17 75.51L122.13 75.4L123.1 75.3L124.07 75.22L125.04 75.16L126.02 75.11L127.01 75.09L128 75.08L128.99 75.09L129.98 75.11ZM124.62 86.97L122.96 87.14L121.32 87.38L119.7 87.67L118.11 88.03L116.54 88.45L114.99 88.94L113.47 89.48L111.98 90.07L110.51 90.72L109.08 91.43L107.68 92.19L106.32 93L104.98 93.87L103.69 94.78L102.43 95.74L101.21 96.75L100.03 97.8L98.89 98.89L97.8 100.03L96.75 101.21L95.74 102.43L94.78 103.69L93.87 104.99L93 106.32L92.19 107.68L91.43 109.08L90.72 110.52L90.07 111.98L89.48 113.47L88.94 114.99L88.46 116.54L88.03 118.11L87.67 119.7L87.38 121.32L87.14 122.96L86.97 124.62L86.87 126.3L86.84 128L86.87 129.7L86.97 131.38L87.14 133.04L87.38 134.68L87.67 136.3L88.03 137.89L88.46 139.46L88.94 141.01L89.48 142.53L90.07 144.02L90.72 145.48L91.43 146.92L92.19 148.32L93 149.68L93.87 151.01L94.78 152.31L95.74 153.57L96.75 154.79L97.8 155.97L98.89 157.11L100.03 158.2L101.21 159.25L102.43 160.26L103.69 161.22L104.98 162.13L106.32 163L107.68 163.81L109.08 164.57L110.51 165.28L111.98 165.93L113.47 166.53L114.99 167.07L116.54 167.55L118.11 167.97L119.7 168.33L121.32 168.63L122.96 168.86L124.62 169.03L126.3 169.13L128 169.16L129.7 169.13L131.38 169.03L133.04 168.86L134.68 168.63L136.3 168.33L137.89 167.97L139.46 167.55L141.01 167.07L142.53 166.53L144.02 165.93L145.48 165.28L146.92 164.57L148.32 163.81L149.68 163L151.01 162.13L152.31 161.22L153.57 160.26L154.79 159.25L155.97 158.2L157.11 157.11L158.2 155.97L159.25 154.79L160.26 153.57L161.22 152.31L162.13 151.01L162.99 149.68L163.81 148.32L164.57 146.92L165.27 145.48L165.93 144.02L166.52 142.53L167.06 141.01L167.54 139.46L167.97 137.89L168.33 136.3L168.62 134.68L168.86 133.04L169.03 131.38L169.13 129.7L169.16 128L169.13 126.3L169.03 124.62L168.86 122.96L168.62 121.32L168.33 119.7L167.97 118.11L167.54 116.54L167.06 114.99L166.52 113.47L165.93 111.98L165.27 110.52L164.57 109.08L163.81 107.68L162.99 106.32L162.13 104.99L161.22 103.69L160.26 102.43L159.25 101.21L158.2 100.03L157.11 98.89L155.97 97.8L154.79 96.75L153.57 95.74L152.31 94.78L151.01 93.87L149.68 93L148.32 92.19L146.92 91.43L145.48 90.72L144.02 90.07L142.53 89.48L141.01 88.94L139.46 88.45L137.89 88.03L136.3 87.67L134.68 87.38L133.04 87.14L131.38 86.97L129.7 86.87L128 86.84L126.3 86.87L124.62 86.97ZM84.23 158.52L83.45 159.68L83.16 161.12L83.45 162.55L84.23 163.72L85.41 164.51L86.84 164.79L88.27 164.51L89.44 163.72L90.22 162.55L90.51 161.12L90.22 159.68L89.44 158.52L88.27 157.73L86.84 157.44L85.4 157.73L84.23 158.52ZM166.05 158.52L165.26 159.68L164.97 161.12L165.26 162.55L166.05 163.72L167.22 164.51L168.65 164.79L170.08 164.51L171.25 163.72L172.04 162.55L172.32 161.12L172.04 159.68L171.25 158.52L170.08 157.73L168.65 157.44L167.21 157.73L166.05 158.52ZM166.67 92.28L165.88 93.45L165.59 94.89L165.88 96.32L166.67 97.48L167.83 98.27L169.26 98.56L170.7 98.27L171.87 97.48L172.65 96.32L172.94 94.89L172.65 93.45L171.87 92.28L170.7 91.49L169.26 91.21L167.83 91.49L166.67 92.28ZM84.65 92.28L83.86 93.45L83.57 94.89L83.86 96.32L84.65 97.48L85.82 98.27L87.25 98.56L88.68 98.27L89.85 97.48L90.64 96.32L90.93 94.89L90.64 93.45L89.85 92.28L88.68 91.49L87.25 91.21L85.82 91.49L84.65 92.28Z" id="ew3kuNiY"></path><path d="M137.47 12.9L142.13 13.37L146.73 14.03L151.27 14.87L155.75 15.88L160.16 17.06L164.5 18.41L168.76 19.92L172.95 21.59L177.05 23.43L181.07 25.41L184.99 27.54L188.83 29.82L192.56 32.24L196.2 34.8L199.73 37.49L203.15 40.32L206.46 43.27L209.66 46.34L212.73 49.54L215.68 52.85L218.51 56.27L221.2 59.8L223.76 63.44L226.18 67.17L228.46 71L230.59 74.93L232.58 78.95L234.41 83.05L236.08 87.24L237.59 91.5L238.94 95.84L240.13 100.25L241.14 104.73L241.97 109.27L242.63 113.87L243.1 118.53L243.39 123.24L243.48 128L243.48 128.3L243.48 128.6L243.48 128.9L243.48 129.2L243.47 129.5L243.47 129.79L243.47 130.09L243.46 130.39L243.45 130.69L243.45 130.99L243.44 131.28L243.43 131.58L243.42 131.88L243.41 132.17L243.4 132.47L243.39 132.77L243.38 133.06L243.36 133.36L243.35 133.65L243.34 133.95L243.32 134.25L243.3 134.54L243.29 134.84L243.27 135.13L243.25 135.43L243.23 135.72L243.21 136.01L243.19 136.31L243.17 136.6L243.15 136.9L243.13 137.19L243.1 137.48L243.08 137.78L243.05 138.07L243.03 138.36L243 138.65L242.98 138.95L242.95 139.24L242.92 139.53L242.89 139.82L242.42 143.73L241.83 147.6L241.11 151.43L240.26 155.21L239.29 158.94L238.2 162.62L237 166.25L235.68 169.82L234.24 173.34L232.69 176.8L231.04 180.2L229.27 183.54L227.4 186.81L225.43 190.01L223.36 193.14L221.19 196.2L218.93 199.19L216.57 202.09L214.12 204.92L211.59 207.67L208.96 210.34L206.25 212.92L203.46 215.41L200.59 217.81L197.64 220.12L194.62 222.33L191.52 224.45L188.35 226.47L185.11 228.38L181.81 230.2L178.44 231.9L175.01 233.5L171.51 234.99L167.96 236.37L164.36 237.63L160.7 238.78L156.99 239.8L153.24 240.71L149.43 241.49L145.58 242.14L145.56 242.14L145.13 242.21L144.7 242.27L144.27 242.34L143.84 242.4L143.41 242.45L142.98 242.51L142.54 242.57L142.11 242.62L141.68 242.67L141.24 242.72L140.81 242.77L140.37 242.82L139.94 242.87L139.5 242.91L139.06 242.95L138.63 243L138.19 243.04L137.75 243.07L137.31 243.11L136.87 243.14L136.43 243.18L135.99 243.21L135.55 243.24L135.11 243.26L134.67 243.29L134.23 243.31L133.79 243.34L133.34 243.36L132.9 243.38L132.46 243.4L132.01 243.41L131.57 243.43L131.12 243.44L130.68 243.45L130.23 243.46L129.79 243.47L129.34 243.47L128.89 243.48L128.45 243.48L128 243.48L123.24 243.38L118.53 243.1L113.87 242.63L109.27 241.97L104.73 241.13L100.25 240.12L95.84 238.94L91.5 237.59L87.24 236.08L83.05 234.41L78.95 232.57L74.93 230.59L71.01 228.46L67.17 226.18L63.44 223.76L59.8 221.2L56.27 218.5L52.85 215.68L49.54 212.73L46.34 209.66L43.27 206.46L40.32 203.15L37.49 199.73L34.8 196.2L32.24 192.56L29.82 188.83L27.54 184.99L25.41 181.07L23.42 177.05L21.59 172.95L19.92 168.76L18.41 164.5L17.06 160.16L15.87 155.75L14.86 151.27L14.03 146.73L13.37 142.13L12.9 137.47L12.61 132.76L12.52 128L12.61 123.24L12.9 118.53L13.37 113.87L14.03 109.27L14.86 104.73L15.87 100.25L17.06 95.84L18.41 91.5L19.92 87.24L21.59 83.05L23.42 78.95L25.41 74.93L27.54 71L29.82 67.17L32.24 63.44L34.8 59.8L37.49 56.27L40.32 52.85L43.27 49.54L46.34 46.34L49.54 43.27L52.85 40.32L56.27 37.49L59.8 34.8L63.44 32.24L67.17 29.82L71.01 27.54L74.93 25.41L78.95 23.43L83.05 21.59L87.24 19.92L91.5 18.41L95.84 17.06L100.25 15.88L104.73 14.87L109.27 14.03L113.87 13.37L118.53 12.9L123.24 12.62L128 12.52L132.76 12.62L137.47 12.9ZM119.66 26.53L115.56 26.95L111.51 27.53L107.51 28.27L103.57 29.16L99.68 30.2L95.86 31.39L92.1 32.73L88.41 34.21L84.8 35.82L81.26 37.57L77.8 39.46L74.42 41.47L71.12 43.61L67.92 45.86L64.8 48.24L61.78 50.73L58.87 53.34L56.05 56.05L53.34 58.87L50.73 61.78L48.24 64.8L45.86 67.92L43.61 71.12L41.47 74.42L39.46 77.79L37.57 81.26L35.82 84.8L34.21 88.41L32.73 92.1L31.39 95.86L30.2 99.68L29.16 103.57L28.27 107.51L27.53 111.51L26.95 115.56L26.53 119.66L26.28 123.81L26.19 128L26.28 132.19L26.53 136.34L26.95 140.44L27.53 144.49L28.27 148.49L29.16 152.43L30.2 156.32L31.39 160.14L32.73 163.9L34.21 167.59L35.82 171.2L37.57 174.74L39.46 178.21L41.47 181.59L43.61 184.88L45.86 188.08L48.24 191.2L50.73 194.22L53.34 197.14L56.05 199.95L58.87 202.66L61.78 205.27L64.8 207.76L67.92 210.14L71.12 212.39L74.42 214.53L77.8 216.54L81.26 218.43L84.8 220.18L88.41 221.79L92.1 223.27L95.86 224.61L99.68 225.8L103.57 226.84L107.51 227.73L111.51 228.47L115.56 229.05L119.66 229.47L123.81 229.72L128 229.81L128.39 229.81L128.78 229.8L129.17 229.8L129.56 229.8L129.95 229.79L130.34 229.78L130.73 229.77L131.12 229.76L131.51 229.75L131.9 229.73L132.29 229.72L132.68 229.7L133.07 229.68L133.46 229.66L133.84 229.64L134.23 229.62L134.62 229.59L135.01 229.57L135.4 229.54L135.79 229.51L136.18 229.48L136.56 229.45L136.95 229.42L137.34 229.38L137.72 229.34L138.11 229.31L138.5 229.27L138.88 229.23L139.27 229.18L139.65 229.14L140.04 229.09L140.42 229.05L140.81 229L141.19 228.95L141.57 228.9L141.96 228.85L142.34 228.79L142.72 228.74L143.1 228.68L143.48 228.62L144.33 228.5L147.72 227.89L151.06 227.18L154.36 226.36L157.62 225.43L160.83 224.41L163.99 223.28L167.1 222.05L170.16 220.72L173.16 219.3L176.11 217.78L179 216.17L181.83 214.48L184.59 212.69L187.3 210.82L189.94 208.87L192.51 206.83L195.01 204.72L197.44 202.52L199.8 200.25L202.09 197.91L204.3 195.49L206.43 193L208.48 190.45L210.45 187.83L212.33 185.14L214.13 182.39L215.84 179.59L217.46 176.72L218.99 173.79L220.43 170.81L221.78 167.78L223.02 164.7L224.17 161.57L225.22 158.39L226.16 155.17L227 151.9L227.74 148.59L228.37 145.24L228.88 141.86L229.29 138.44L229.32 138.18L229.34 137.93L229.36 137.67L229.39 137.41L229.41 137.15L229.43 136.89L229.45 136.64L229.47 136.38L229.49 136.12L229.51 135.86L229.53 135.6L229.55 135.34L229.57 135.08L229.58 134.82L229.6 134.56L229.62 134.3L229.63 134.04L229.65 133.78L229.66 133.52L229.67 133.25L229.69 132.99L229.7 132.73L229.71 132.47L229.72 132.21L229.73 131.94L229.74 131.68L229.75 131.42L229.76 131.16L229.77 130.89L229.77 130.63L229.78 130.37L229.79 130.11L229.79 129.84L229.79 129.58L229.8 129.32L229.8 129.05L229.8 128.79L229.81 128.53L229.81 128.26L229.81 128L229.72 123.81L229.47 119.66L229.05 115.56L228.47 111.51L227.73 107.51L226.84 103.57L225.8 99.68L224.61 95.86L223.27 92.1L221.79 88.41L220.18 84.8L218.43 81.26L216.54 77.79L214.53 74.42L212.39 71.12L210.14 67.92L207.76 64.8L205.27 61.78L202.66 58.87L199.95 56.05L197.13 53.34L194.22 50.73L191.2 48.24L188.08 45.86L184.88 43.61L181.58 41.47L178.2 39.46L174.74 37.57L171.2 35.82L167.59 34.21L163.9 32.73L160.14 31.39L156.32 30.2L152.43 29.16L148.49 28.27L144.49 27.53L140.44 26.95L136.34 26.53L132.19 26.28L128 26.19L123.81 26.28L119.66 26.53Z" id="agzehqBUv"></path></defs><g><g><use xlink:href="#bi662Qkez" opacity="1" fill="#424242" fill-opacity="1"></use><g><use xlink:href="#bi662Qkez" opacity="1" fill-opacity="0" stroke="#000000" stroke-width="1" stroke-opacity="0"></use></g></g><g><use xlink:href="#bKdMye7e3" opacity="1" fill="#303030" fill-opacity="1"></use><g><use xlink:href="#bKdMye7e3" opacity="1" fill-opacity="0" stroke="#000000" stroke-width="1" stroke-opacity="0"></use></g></g><g><use xlink:href="#aFPCt75to" opacity="1" fill="#e6e6e6" fill-opacity="1"></use><g><use xlink:href="#aFPCt75to" opacity="1" fill-opacity="0" stroke="#000000" stroke-width="1" stroke-opacity="0"></use></g></g><g><use xlink:href="#ew3kuNiY" opacity="1" fill="#fc1a20" fill-opacity="1"></use><g><use xlink:href="#ew3kuNiY" opacity="1" fill-opacity="0" stroke="#000000" stroke-width="1" stroke-opacity="0"></use></g></g><g><use xlink:href="#agzehqBUv" opacity="1" fill="#fc1a20" fill-opacity="1"></use><g><use xlink:href="#agzehqBUv" opacity="1" fill-opacity="0" stroke="#000000" stroke-width="1" stroke-opacity="0"></use></g></g></g></svg>